<?xml version="1.0" standalone="no"?>
<!DOCTYPE svg PUBLIC "-//W3C//DTD SVG 20010904//EN"
 "http://www.w3.org/TR/2001/REC-SVG-20010904/DTD/svg10.dtd">
<svg version="1.0" xmlns="http://www.w3.org/2000/svg"
 width="212.000000pt" height="212.000000pt" viewBox="0 0 512.000000 512.000000"
 preserveAspectRatio="xMidYMid meet">

<g transform="translate(0.000000,512.000000) scale(0.100000,-0.100000)"
fill="#000000" stroke="none">
<path d="M2390 4764 c-897 -112 -1546 -879 -1507 -1778 22 -509 247 -1114 620
-1671 338 -506 745 -894 1006 -961 54 -13 74 -14 125 -4 258 50 670 433 1012
940 440 652 672 1347 634 1893 -17 243 -68 427 -180 652 -233 469 -654 791
-1186 905 -77 17 -142 22 -294 25 -107 2 -211 1 -230 -1z m408 -865 c101 -25
241 -96 322 -162 418 -340 424 -981 12 -1323 -349 -289 -852 -262 -1163 62
-115 121 -182 242 -219 396 -27 113 -27 283 0 396 81 340 364 597 715 652 83
12 241 3 333 -21z"/>
</g>
</svg>
